<svg xmlns="http://www.w3.org/2000/svg" xmlns:xlink="http://www.w3.org/1999/xlink" viewBox="0 0 188 79" version="1.1" width="100px" height="43px">
    <!-- Generator: Sketch 52.6 (67491) - http://www.bohemiancoding.com/sketch -->
    <title>disney</title>
    <desc>Created with Sketch.</desc>
    <g id="disney" stroke="none" stroke-width="1" fill="none" fill-rule="evenodd" fill-color-id="-1" stroke-color-id="-1" recolor-fill="true" recolor-stroke="true">
        <g fill="#000000" fill-rule="nonzero" id="Shape" fill-color-id="0" stroke-color-id="-1" recolor-fill="true" recolor-stroke="true">
            <path d="M94.954,9.126 C96.2266417,9.18551296 97.4422217,9.67160408 98.405,10.506 C99.717,11.748 100.061,13.819 99.44,15.476 C97.026,20.445 91.285,23.764 87.362,24.862 C85.015,25.414 82.048,25.414 79.908,24.586 C78.872,25.207 77.998,27.214 76.733,26.38 C74.902,24.95 76.487,22.712 75.43,21.124 C75.212,20.797 74.663,20.773 74.387,20.238 C72.937,17.063 74.732,14.026 76.733,11.611 C80.069,7.889 89.64,3.742 94.954,9.126 Z M83.842,11.61 C81.978,11.955 79.873,12.766 78.735,14.095 C77.596,15.423 76.872,16.718 77.562,18.098 C79.978,16.304 81.151,13.819 83.843,12.301 C83.842,12.024 84.256,11.817 83.842,11.61 Z M95.093,12.301 C90.33,11.886 86.741,15.476 83.359,18.926 C83.152,19.478 81.91,20.099 82.876,20.72 C87.432,21.134 91.78,19.824 95.093,16.786 C96.06,15.889 96.748,14.716 96.267,13.473 C96.06,12.991 95.573,12.508 95.093,12.301 Z M136.364,32.868 C138.573,38.252 140.436,46.74 136.364,51.917 C135.26,53.159 133.328,54.304 132.086,53.366 C127.53,49.709 125.599,44.463 122.769,39.769 C122.355,39.562 122.355,40.115 122.148,40.322 C121.113,45.084 123.045,51.296 119.802,55.022 C118.56,55.229 117.398,54.59 116.972,53.366 C115.384,48.466 117.039,43.358 117.453,38.458 C118.42,35.973 118.834,33.075 120.974,31.211 C124.425,32.591 126.081,36.457 128.081,39.287 C129.532,41.426 130.704,43.842 132.36,45.774 C133.809,45.153 133.096,43.259 133.051,42.116 C132.497,37.63 131.255,33.489 130.081,29.21 C130.014,28.106 129.393,26.242 130.564,25.552 C133.674,26.933 134.983,30.176 136.364,32.868 Z M115.521,31.211 C115.521,32.247 114.693,33.541 114.001,33.696 C107.376,34.731 99.991,34.11 93.78,36.18 C93.573,36.939 94.47,37.077 94.953,37.284 C100.266,38.112 105.858,38.319 111.035,39.631 C113.772,40.326 114.763,43.566 114.97,46.257 C115.097,48.379 114.281,50.95 112.209,52.4 C107.103,55.644 99.304,55.505 94.126,52.539 C92.147,51.429 90.261,49.641 90.123,47.432 C90.135,45.678 90.883,44.297 92.125,43.636 C97.095,41.634 103.237,42.74 107.517,45.292 C107.791,46.673 106.297,46.598 105.582,47.087 C100.819,49.848 97.231,43.983 92.814,46.12 C92.193,46.534 91.744,47.689 92.469,48.053 C97.921,50.469 103.995,48.743 109.378,47.225 C109.999,47.018 110.759,46.397 110.827,45.776 C110.62,43.567 108.136,43.085 106.548,42.464 C101.855,41.291 96.679,41.291 91.64,40.808 C90.674,40.601 89.443,39.928 89.156,39.152 C88.604,37.496 88.604,35.218 89.846,33.838 C96.264,28.178 105.995,28.662 114.139,30.18 C114.692,30.383 115.313,30.59 115.521,31.211 Z M85.361,33.834 C85.982,40.459 86.327,46.603 86.189,53.573 C86.051,54.469 85.016,54.677 84.326,55.022 C83.222,55.229 81.795,54.994 81.358,54.401 C79.771,51.846 80.323,48.397 80.185,45.291 C80.392,40.392 80.323,35.077 81.704,30.521 C81.968,29.859 82.739,29.279 83.36,29.692 C85.016,30.521 85.292,32.178 85.361,33.834 Z M162.041,32.868 C162.373,33.426 162.72,34.288 162.041,34.662 C158.935,36.042 154.726,35.421 151.136,35.835 C150.17,36.663 149.41,38.043 149.754,39.286 C150.101,39.493 150.41,39.808 150.791,39.768 C152.998,39.907 156.312,38.733 157.763,40.803 C158.117,41.419 157.715,43.719 156.728,43.771 C154.035,44.118 149.607,43.433 148.306,44.118 C146.65,45.222 146.787,47.361 146.166,49.088 C147.34,49.847 148.569,49.07 149.961,48.88 C152.517,48.466 155.347,47.707 157.899,48.259 C158.382,49.156 159.073,50.123 158.589,51.227 C154.238,54.678 148.626,58.215 142.647,55.713 C140.403,54.707 139.403,51.296 140.163,48.399 C140.645,46.328 142.784,44.327 141.474,42.118 C141.267,41.151 141.82,40.324 142.648,40.117 C144.925,40.117 144.441,37.287 145.615,35.975 C144.304,34.526 140.992,34.595 141.337,31.696 C142.925,30.868 144.858,31.144 146.65,30.868 C150.722,30.039 155.277,29.556 159.421,30.039 C160.246,30.205 161.351,31.833 162.041,32.868 Z M63.482,17.132 C69.851,22.338 78.114,31.212 77.079,41.426 C75.836,49.502 67.278,55.575 60.031,57.508 C52.991,59.578 44.157,59.371 36.978,57.715 C36.495,59.027 36.012,60.613 34.494,61.166 C33.528,61.511 32.285,61.304 31.526,60.683 C29.387,58.681 31.112,54.816 28.006,53.575 C21.932,51.021 15.375,45.982 12.27,39.771 C11.856,38.529 12.339,37.287 13.098,36.321 C17.861,32.525 23.865,31.007 29.87,29.833 C30.215,29.971 30.077,29.488 30.353,29.35 C30.698,25.209 30.836,20.998 32.147,17.271 C32.446,16.748 33.182,16.581 33.666,16.926 C37.462,19.824 35.667,25.278 37.324,29.211 C44.571,29.556 51.818,29.901 57.546,33.974 C59.479,35.561 59.95,38.592 59.34,40.324 C58.731,42.053 56.718,43.292 54.854,43.428 C53.611,43.428 51.265,43.549 51.403,42.601 C51.541,41.652 55.625,40.099 54.371,38.804 C52.568,36.943 43.547,35.836 37.956,35.146 C37.266,35.008 36.633,35.215 36.633,35.974 C36.495,41.219 36.081,47.016 36.978,52.056 C37.047,52.402 37.461,52.816 37.807,52.883 C47.676,54.471 58.098,53.573 65.828,47.914 C69.417,45.017 70.591,40.942 69.969,36.457 C66.863,23.965 53.819,16.441 43.121,11.61 C32.7,7.055 21.173,4.708 8.819,5.33 C6.852,5.474 3.735,6.153 3.712,6.849 C3.689,7.545 7.243,7.326 6.817,8.643 C6.392,9.959 2.78,9.178 1.71,8.85 C0.64,8.522 0.744,6.986 1.02,6.02 C3.712,1.258 11.224,0.873 14.617,0.706 C33.389,0.222 51.542,7.371 63.482,17.132 Z M29.663,35.629 C24.9,35.698 19.862,36.181 15.445,37.837 C14.548,38.182 13.443,39.148 14.133,40.322 C15.927,42.737 18.493,44.72 20.897,46.119 C23.301,47.516 26.488,49.294 29.387,49.709 C30.077,45.222 30.077,40.805 30.008,36.181 C29.731,36.043 30.007,35.767 29.663,35.629 Z M172.323,29.348 C172.116,35.352 166.524,39.08 166.524,45.084 C166.731,45.291 166.871,45.567 167.145,45.431 C171.633,40.53 176.049,33.559 182.606,31.489 C184.334,31.351 185.895,32.852 186.541,33.974 C188.819,38.529 188.269,44.948 185.093,49.089 C181.816,53.154 176.119,57.233 169.634,56.542 C166.943,63.168 165.076,70.139 164.041,77.386 C163.489,78.835 162.179,77.524 161.351,77.248 C155.761,72.831 160.351,61.138 160.73,59.646 C161.109,58.158 162.605,54.648 163.699,51.709 C161.076,47.017 162.732,41.356 164.871,37.008 C166.527,34.109 168.807,31.21 171.498,29.002 C171.84,29.003 172.116,29.072 172.323,29.348 Z M183.437,36.802 C182.609,36.664 182.263,37.769 181.574,37.976 C178.4,41.565 175.224,45.154 173.636,49.433 C175.777,49.709 177.57,48.329 179.435,47.57 C182.609,45.568 184.611,42.257 184.404,38.46 C184.265,37.837 183.713,37.354 183.437,36.802 Z" fill-color-id="0" stroke-color-id="-1" recolor-fill="true" recolor-stroke="true" fill="#000000"/>
        </g>
    </g>
</svg>